<?xml version="1.0" encoding="UTF-8"?>
<svg xmlns="http://www.w3.org/2000/svg" xmlns:xlink="http://www.w3.org/1999/xlink" viewBox="0 0 16 16" width="16px" height="16px">
<g id="surface144017987">
<path style=" stroke:none;fill-rule:nonzero;fill:rgb(15.686275%,65.490198%,27.058825%);fill-opacity:1;" d="M 12.367188 0.152344 C 12 0.152344 11.640625 0.28125 11.367188 0.558594 L 10.75 1.191406 L 14.808594 5.269531 L 15.421875 4.632812 C 15.976562 4.078125 15.984375 3.179688 15.421875 2.617188 L 13.382812 0.578125 C 13.101562 0.296875 12.730469 0.15625 12.367188 0.152344 Z M 10.058594 1.75 L 9.097656 2.671875 L 13.328125 6.902344 L 14.308594 6 Z M 8.480469 3.347656 L 1.828125 9.941406 C 1.671875 10.023438 1.5625 10.160156 1.519531 10.328125 L 0.0976562 15.152344 C 0.03125 15.367188 0.0898438 15.597656 0.246094 15.753906 C 0.402344 15.910156 0.632812 15.96875 0.847656 15.902344 L 5.671875 14.480469 C 5.898438 14.445312 6.082031 14.289062 6.152344 14.078125 L 12.710938 7.578125 L 11.808594 6.671875 L 5.078125 13.421875 L 2.367188 14.210938 L 1.789062 13.632812 L 2.617188 10.808594 L 9.289062 4.152344 Z M 9.941406 4.828125 L 3.191406 11.597656 L 4.171875 11.808594 L 4.308594 12.710938 L 11.078125 5.960938 Z M 9.941406 4.828125 "/>
</g>
</svg>
